Everymans War

source:

Everymans War 2009 720p BluRay x264-LCHD 
http://www.imdb.com/title/tt1209319/

ID                               : 1
Format                           : AVC
Format/Info                      : Advanced Video Codec
Format profile                   : Baseline@L2.0
Format settings, CABAC           : No
Format settings, ReFrames        : 3 frames
Codec ID                         : avc1
Codec ID/Info                    : Advanced Video Coding
Duration                         : 1h 44mn
Bit rate mode                    : Variable
Bit rate                         : 395 Kbps
Width                            : 464 pixels
Height                           : 208 pixels
Display aspect ratio             : 2.25:1
Frame rate mode                  : Variable
Frame rate                       : 23.976 fps
Minimum frame rate               : 23.810 fps
Maximum frame rate               : 24.390 fps
Color space                      : YUV
Chroma subsampling               : 4:2:0
Bit depth                        : 8 bits
Scan type                        : Progressive
Bits/(Pixel*Frame)               : 0.171
Stream size                      : 296 MiB (75%)
Writing library                  : x264 core 79

ID                               : 2
Format                           : AAC
Format/Info                      : Advanced Audio Codec
Format version                   : Version 4
Format profile                   : LC
Format settings, SBR             : No
Codec ID                         : 40
Duration                         : 1h 44mn
Bit rate mode                    : Variable
Bit rate                         : 128 Kbps
Maximum bit rate                 : 229 Kbps
Channel(s)                       : 2 channels
Channel positions                : Front: L R
Sampling rate                    : 48.0 KHz
Stream size                      : 95.6 MiB (24%)
Language                         : English
 
http://img171.imageshack.us/img171/6571/vlcsnap00001k.png 
http://img175.imageshack.us/img175/6350/vlcsnap00002y.png 
http://img683.imageshack.us/img683/7651/vlcsnap00003w.png 
http://img441.imageshack.us/img441/2733/vlcsnap00004b.png 
http://img153.imageshack.us/img153/8229/vlcsnap00005w.png 
http://img203.imageshack.us/img203/3815/vlcsnap00006w.png 
http://img714.imageshack.us/img714/7393/vlcsnap00007s.png 
http://img576.imageshack.us/img576/5169/vlcsnap00008h.png




PLEASE LET THE TORRENT SEED AND SHARE IT WITH ALL YOU KNOW!

Let me know what I can do to be your trusted source of Handheld videos.



-OOO